{
  "asset": {
    "version": "2.0",
    "generator": "THREE.GLTFExporter r164"
  },
  "scenes": [
    {
      "name": "Scene",
      "nodes": [
        3
      ]
    }
  ],
  "scene": 0,
  "nodes": [
    {
      "name": "donut",
      "extras": {
        "name": "donut"
      },
      "mesh": 0
    },
    {
      "name": "icing",
      "extras": {
        "name": "icing"
      },
      "mesh": 1
    },
    {
      "matrix": [
        1,
        0,
        0,
        0,
        0,
        1,
        0,
        0,
        0,
        0,
        1,
        0,
        0.001086849719285965,
        -0.0015460774302482605,
        -0.02670140564441681,
        1
      ],
      "name": "Cylinder",
      "extras": {
        "name": "Cylinder"
      },
      "mesh": 2
    },
    {
      "name": "Donut.glb",
      "children": [
        0,
        1,
        2
      ]
    }
  ],
  "bufferViews": [
    {
      "buffer": 0,
      "byteOffset": 0,
      "byteLength": 32076,
      "target": 34962,
      "byteStride": 12
    },
    {
      "buffer": 0,
      "byteOffset": 32076,
      "byteLength": 21384,
      "target": 34962,
      "byteStride": 8
    },
    {
      "buffer": 0,
      "byteOffset": 53460,
      "byteLength": 32076,
      "target": 34962,
      "byteStride": 12
    },
    {
      "buffer": 0,
      "byteOffset": 85536,
      "byteLength": 30720,
      "target": 34963
    },
    {
      "buffer": 0,
      "byteOffset": 116256,
      "byteLength": 565704,
      "target": 34962,
      "byteStride": 12
    },
    {
      "buffer": 0,
      "byteOffset": 681960,
      "byteLength": 377136,
      "target": 34962,
      "byteStride": 8
    },
    {
      "buffer": 0,
      "byteOffset": 1059096,
      "byteLength": 565704,
      "target": 34962,
      "byteStride": 12
    },
    {
      "buffer": 0,
      "byteOffset": 1624800,
      "byteLength": 539616,
      "target": 34963
    },
    {
      "buffer": 0,
      "byteOffset": 2164416,
      "byteLength": 576,
      "target": 34962,
      "byteStride": 12
    },
    {
      "buffer": 0,
      "byteOffset": 2164992,
      "byteLength": 384,
      "target": 34962,
      "byteStride": 8
    },
    {
      "buffer": 0,
      "byteOffset": 2165376,
      "byteLength": 576,
      "target": 34962,
      "byteStride": 12
    },
    {
      "buffer": 0,
      "byteOffset": 2165952,
      "byteLength": 168,
      "target": 34963
    }
  ],
  "buffers": [
    {
      "byteLength": 2166120,
      "uri": "data:application/octet-stream;base64,"
    }
  ],
  "accessors": [
    {
      "bufferView": 0,
      "componentType": 5126,
      "count": 2673,
      "max": [
        0.049930498003959656,
        0.019784897565841675,
        0.049306344240903854
      ],
      "min": [
        -0.048815056681632996,
        -0.02594079077243805,
        -0.049872539937496185
      ],
      "type": "VEC3"
    },
    {
      "bufferView": 1,
      "componentType": 5126,
      "count": 2673,
      "max": [
        1.0000001192092896,
        1
      ],
      "min": [
        4.440892098500626e-16,
        -1.1920928955078125e-7
      ],
      "type": "VEC2"
    },
    {
      "bufferView": 2,
      "componentType": 5126,
      "count": 2673,
      "max": [
        0.999901533126831,
        0.9999971389770508,
        0.9983566999435425
      ],
      "min": [
        -0.9998311996459961,
        -0.9998835325241089,
        -0.9998728632926941
      ],
      "type": "VEC3"
    },
    {
      "bufferView": 3,
      "componentType": 5123,
      "count": 15360,
      "max": [
        2672
      ],
      "min": [
        0
      ],
      "type": "SCALAR"
    },
    {
      "bufferView": 4,
      "componentType": 5126,
      "count": 47142,
      "max": [
        0.052044399082660675,
        0.02419024333357811,
        0.05160277336835861
      ],
      "min": [
        -0.05135224387049675,
        -0.011218865402042866,
        -0.051842499524354935
      ],
      "type": "VEC3"
    },
    {
      "bufferView": 5,
      "componentType": 5126,
      "count": 47142,
      "max": [
        1.0000003576278687,
        0.5000000596046448
      ],
      "min": [
        4.440892098500626e-16,
        -3.5762786865234375e-7
      ],
      "type": "VEC2"
    },
    {
      "bufferView": 6,
      "componentType": 5126,
      "count": 47142,
      "max": [
        0.9999697208404541,
        0.9999967217445374,
        0.9995732307434082
      ],
      "min": [
        -0.9998082518577576,
        -0.9999964833259583,
        -0.999906063079834
      ],
      "type": "VEC3"
    },
    {
      "bufferView": 7,
      "componentType": 5123,
      "count": 269808,
      "max": [
        47141
      ],
      "min": [
        0
      ],
      "type": "SCALAR"
    },
    {
      "bufferView": 8,
      "componentType": 5126,
      "count": 48,
      "max": [
        0.0009763689595274627,
        0.0009763692505657673,
        0.0037130876444280148
      ],
      "min": [
        -0.0009763689595274627,
        -0.0009763692505657673,
        -0.0037130876444280148
      ],
      "type": "VEC3"
    },
    {
      "bufferView": 9,
      "componentType": 5126,
      "count": 48,
      "max": [
        1,
        0.9900000095367432
      ],
      "min": [
        0,
        0
      ],
      "type": "VEC2"
    },
    {
      "bufferView": 10,
      "componentType": 5126,
      "count": 48,
      "max": [
        0.9238793849945068,
        0.9238793849945068,
        1
      ],
      "min": [
        -0.9238793849945068,
        -0.9238793849945068,
        -1
      ],
      "type": "VEC3"
    },
    {
      "bufferView": 11,
      "componentType": 5123,
      "count": 84,
      "max": [
        47
      ],
      "min": [
        0
      ],
      "type": "SCALAR"
    }
  ],
  "materials": [
    {
      "pbrMetallicRoughness": {
        "metallicFactor": 0,
        "roughnessFactor": 0.67412930727005,
        "baseColorTexture": {
          "index": 0,
          "texCoord": 0
        }
      },
      "doubleSided": true,
      "name": "Material.002"
    },
    {
      "pbrMetallicRoughness": {
        "baseColorFactor": [
          0.19178132712841034,
          0.6467773914337158,
          1,
          1
        ],
        "metallicFactor": 0,
        "roughnessFactor": 0.2412935197353363
      },
      "doubleSided": true,
      "name": "Material.001"
    },
    {
      "pbrMetallicRoughness": {
        "metallicFactor": 1,
        "roughnessFactor": 1
      }
    }
  ],
  "textures": [
    {
      "sampler": 0,
      "source": 0,
      "name": "Donut Base"
    }
  ],
  "samplers": [
    {
      "magFilter": 9729,
      "minFilter": 9987,
      "wrapS": 10497,
      "wrapT": 10497
    }
  ],
  "images": [
    {
      "mimeType": "image/png",
      "uri": "data:image/png;base64,"
    }
  ],
  "meshes": [
    {
      "primitives": [
        {
          "mode": 4,
          "attributes": {
            "POSITION": 0,
            "TEXCOORD_0": 1,
            "NORMAL": 2
          },
          "indices": 3,
          "material": 0
        }
      ]
    },
    {
      "primitives": [
        {
          "mode": 4,
          "attributes": {
            "POSITION": 4,
            "TEXCOORD_0": 5,
            "NORMAL": 6
          },
          "indices": 7,
          "material": 1
        }
      ]
    },
    {
      "primitives": [
        {
          "mode": 4,
          "attributes": {
            "POSITION": 8,
            "TEXCOORD_0": 9,
            "NORMAL": 10
          },
          "indices": 11,
          "material": 2
        }
      ]
    }
  ]
}