{
  "asset": {
    "version": "2.0",
    "generator": "THREE.GLTFExporter r164"
  },
  "scenes": [
    {
      "name": "Scene",
      "nodes": [
        3
      ]
    }
  ],
  "scene": 0,
  "nodes": [
    {
      "name": "donut",
      "extras": {
        "name": "donut"
      },
      "mesh": 0
    },
    {
      "name": "icing",
      "extras": {
        "name": "icing"
      },
      "mesh": 1
    },
    {
      "matrix": [
        1,
        0,
        0,
        0,
        0,
        1,
        0,
        0,
        0,
        0,
        1,
        0,
        0.001086849719285965,
        -0.0015460774302482605,
        -0.02670140564441681,
        1
      ],
      "name": "Cylinder",
      "extras": {
        "name": "Cylinder"
      },
      "mesh": 2
    },
    {
      "name": "Donut.glb",
      "children": [
        0,
        1,
        2
      ]
    }
  ],
  "bufferViews": [
    {
      "buffer": 0,
      "byteOffset": 0,
      "byteLength": 32076,
      "target": 34962,
      "byteStride": 12
    },
    {
      "buffer": 0,
      "byteOffset": 32076,
      "byteLength": 21384,
      "target": 34962,
      "byteStride": 8
    },
    {
      "buffer": 0,
      "byteOffset": 53460,
      "byteLength": 32076,
      "target": 34962,
      "byteStride": 12
    },
    {
      "buffer": 0,
      "byteOffset": 85536,
      "byteLength": 30720,
      "target": 34963
    },
    {
      "buffer": 0,
      "byteOffset": 116256,
      "byteLength": 135720,
      "target": 34962,
      "byteStride": 12
    },
    {
      "buffer": 0,
      "byteOffset": 251976,
      "byteLength": 90480,
      "target": 34962,
      "byteStride": 8
    },
    {
      "buffer": 0,
      "byteOffset": 342456,
      "byteLength": 135720,
      "target": 34962,
      "byteStride": 12
    },
    {
      "buffer": 0,
      "byteOffset": 478176,
      "byteLength": 134904,
      "target": 34963
    },
    {
      "buffer": 0,
      "byteOffset": 613080,
      "byteLength": 576,
      "target": 34962,
      "byteStride": 12
    },
    {
      "buffer": 0,
      "byteOffset": 613656,
      "byteLength": 384,
      "target": 34962,
      "byteStride": 8
    },
    {
      "buffer": 0,
      "byteOffset": 614040,
      "byteLength": 576,
      "target": 34962,
      "byteStride": 12
    },
    {
      "buffer": 0,
      "byteOffset": 614616,
      "byteLength": 168,
      "target": 34963
    }
  ],
  "buffers": [
    {
      "byteLength": 614784,
      "uri": "data:application/octet-stream;base64,"
    }
  ],
  "accessors": [
    {
      "bufferView": 0,
      "componentType": 5126,
      "count": 2673,
      "max": [
        0.049930498003959656,
        0.019784897565841675,
        0.049306344240903854
      ],
      "min": [
        -0.048815056681632996,
        -0.02594079077243805,
        -0.049872539937496185
      ],
      "type": "VEC3"
    },
    {
      "bufferView": 1,
      "componentType": 5126,
      "count": 2673,
      "max": [
        1.0000001192092896,
        1
      ],
      "min": [
        4.440892098500626e-16,
        -1.1920928955078125e-7
      ],
      "type": "VEC2"
    },
    {
      "bufferView": 2,
      "componentType": 5126,
      "count": 2673,
      "max": [
        0.999901533126831,
        0.9999971389770508,
        0.9983566999435425
      ],
      "min": [
        -0.9998311996459961,
        -0.9998835325241089,
        -0.9998728632926941
      ],
      "type": "VEC3"
    },
    {
      "bufferView": 3,
      "componentType": 5123,
      "count": 15360,
      "max": [
        2672
      ],
      "min": [
        0
      ],
      "type": "SCALAR"
    },
    {
      "bufferView": 4,
      "componentType": 5126,
      "count": 11310,
      "max": [
        0.052099790424108505,
        0.024258596822619438,
        0.05166703835129738
      ],
      "min": [
        -0.051471780985593796,
        -0.01164323091506958,
        -0.05190170928835869
      ],
      "type": "VEC3"
    },
    {
      "bufferView": 5,
      "componentType": 5126,
      "count": 11310,
      "max": [
        1.000000238418579,
        0.5000000596046448
      ],
      "min": [
        4.440892098500626e-16,
        -2.384185791015625e-7
      ],
      "type": "VEC2"
    },
    {
      "bufferView": 6,
      "componentType": 5126,
      "count": 11310,
      "max": [
        0.9997146129608154,
        0.9999974966049194,
        0.9997602701187134
      ],
      "min": [
        -0.9997472763061523,
        -0.9999938607215881,
        -0.9998288154602051
      ],
      "type": "VEC3"
    },
    {
      "bufferView": 7,
      "componentType": 5123,
      "count": 67452,
      "max": [
        11309
      ],
      "min": [
        0
      ],
      "type": "SCALAR"
    },
    {
      "bufferView": 8,
      "componentType": 5126,
      "count": 48,
      "max": [
        0.0009763689595274627,
        0.0009763692505657673,
        0.0037130876444280148
      ],
      "min": [
        -0.0009763689595274627,
        -0.0009763692505657673,
        -0.0037130876444280148
      ],
      "type": "VEC3"
    },
    {
      "bufferView": 9,
      "componentType": 5126,
      "count": 48,
      "max": [
        1,
        0.9900000095367432
      ],
      "min": [
        0,
        0
      ],
      "type": "VEC2"
    },
    {
      "bufferView": 10,
      "componentType": 5126,
      "count": 48,
      "max": [
        0.9238793849945068,
        0.9238793849945068,
        1
      ],
      "min": [
        -0.9238793849945068,
        -0.9238793849945068,
        -1
      ],
      "type": "VEC3"
    },
    {
      "bufferView": 11,
      "componentType": 5123,
      "count": 84,
      "max": [
        47
      ],
      "min": [
        0
      ],
      "type": "SCALAR"
    }
  ],
  "materials": [
    {
      "pbrMetallicRoughness": {
        "metallicFactor": 0,
        "roughnessFactor": 0.67412930727005,
        "baseColorTexture": {
          "index": 0,
          "texCoord": 0
        }
      },
      "doubleSided": true,
      "name": "Material.002"
    },
    {
      "pbrMetallicRoughness": {
        "baseColorFactor": [
          0.19178132712841034,
          0.6467773914337158,
          1,
          1
        ],
        "metallicFactor": 0,
        "roughnessFactor": 0.2412935197353363
      },
      "doubleSided": true,
      "name": "Material.001"
    },
    {
      "pbrMetallicRoughness": {
        "metallicFactor": 1,
        "roughnessFactor": 1
      }
    }
  ],
  "textures": [
    {
      "sampler": 0,
      "source": 0,
      "name": "Donut Base"
    }
  ],
  "samplers": [
    {
      "magFilter": 9729,
      "minFilter": 9987,
      "wrapS": 10497,
      "wrapT": 10497
    }
  ],
  "images": [
    {
      "mimeType": "image/png",
      "uri": "data:image/png;base64,"
    }
  ],
  "meshes": [
    {
      "primitives": [
        {
          "mode": 4,
          "attributes": {
            "POSITION": 0,
            "TEXCOORD_0": 1,
            "NORMAL": 2
          },
          "indices": 3,
          "material": 0
        }
      ]
    },
    {
      "primitives": [
        {
          "mode": 4,
          "attributes": {
            "POSITION": 4,
            "TEXCOORD_0": 5,
            "NORMAL": 6
          },
          "indices": 7,
          "material": 1
        }
      ]
    },
    {
      "primitives": [
        {
          "mode": 4,
          "attributes": {
            "POSITION": 8,
            "TEXCOORD_0": 9,
            "NORMAL": 10
          },
          "indices": 11,
          "material": 2
        }
      ]
    }
  ]
}